<?xml version="1.0" encoding="utf-8"?>
<svg version="1.1" xmlns:xlink="http://www.w3.org/1999/xlink" width="7px" height="4px" xmlns="http://www.w3.org/2000/svg">
  <g transform="matrix(1 0 0 1 -936 -248 )">
    <path d="M 6.8701171875 3.24305555555556  C 6.95670572916667 3.33101851851852  7 3.43518518518518  7 3.55555555555556  C 7 3.67592592592593  6.95670572916667 3.78009259259259  6.8701171875 3.86805555555556  C 6.78352864583333 3.95601851851852  6.68098958333333 4  6.5625 4  L 0.4375 4  C 0.319010416666667 4  0.216471354166667 3.95601851851852  0.1298828125 3.86805555555556  C 0.0432942708333333 3.78009259259259  0 3.67592592592593  0 3.55555555555556  C 0 3.43518518518518  0.0432942708333333 3.33101851851852  0.1298828125 3.24305555555556  L 3.1923828125 0.131944444444445  C 3.27897135416667 0.043981481481481  3.38151041666667 0  3.5 0  C 3.61848958333333 0  3.72102864583333 0.043981481481481  3.8076171875 0.131944444444445  L 6.8701171875 3.24305555555556  Z " fill-rule="nonzero" fill="#d7d7d7" stroke="none" transform="matrix(1 0 0 1 936 248 )" />
  </g>
</svg>