<?xml version="1.0" encoding="utf-8"?>
<svg version="1.1" xmlns:xlink="http://www.w3.org/1999/xlink" width="19px" height="19px" xmlns="http://www.w3.org/2000/svg">
  <g transform="matrix(1 0 0 1 -1039 -32 )">
    <path d="M 11.65234375 11.65234375  C 12.6533453525641 10.6513421474359  13.1538461538462 9.44671474358974  13.1538461538462 8.03846153846154  C 13.1538461538462 6.63020833333333  12.6533453525641 5.42558092948718  11.65234375 4.42457932692308  C 10.6513421474359 3.42357772435897  9.44671474358974 2.92307692307692  8.03846153846154 2.92307692307692  C 6.63020833333333 2.92307692307692  5.42558092948718 3.42357772435897  4.42457932692308 4.42457932692308  C 3.42357772435897 5.42558092948718  2.92307692307692 6.63020833333333  2.92307692307692 8.03846153846154  C 2.92307692307692 9.44671474358974  3.42357772435897 10.6513421474359  4.42457932692308 11.65234375  C 5.42558092948718 12.6533453525641  6.63020833333333 13.1538461538462  8.03846153846154 13.1538461538462  C 9.44671474358974 13.1538461538462  10.6513421474359 12.6533453525641  11.65234375 11.65234375  Z M 18.5775240384615 16.5108173076923  C 18.8591746794872 16.7924679487179  19 17.135016025641  19 17.5384615384615  C 19 17.9342948717949  18.8553685897436 18.2768429487179  18.5661057692308 18.5661057692308  C 18.2768429487179 18.8553685897436  17.9342948717949 19  17.5384615384615 19  C 17.1274038461538 19  16.7848557692308 18.8553685897436  16.5108173076923 18.5661057692308  L 12.5943509615385 14.6610576923077  C 11.2317708333333 15.604967948718  9.71314102564103 16.0769230769231  8.03846153846154 16.0769230769231  C 6.94991987179487 16.0769230769231  5.90895432692308 15.8656850961538  4.91556490384615 15.4432091346154  C 3.92217548076923 15.0207331730769  3.06580528846154 14.4498197115385  2.34645432692308 13.73046875  C 1.62710336538462 13.0111177884615  1.05618990384615 12.1547475961538  0.633713942307692 11.1613581730769  C 0.211237980769231 10.16796875  0 9.1270032051282  0 8.03846153846154  C 0 6.94991987179487  0.211237980769231 5.90895432692308  0.633713942307692 4.91556490384615  C 1.05618990384615 3.92217548076923  1.62710336538462 3.06580528846154  2.34645432692308 2.34645432692308  C 3.06580528846154 1.62710336538462  3.92217548076923 1.05618990384615  4.91556490384615 0.633713942307693  C 5.90895432692308 0.21123798076923  6.94991987179487 0  8.03846153846154 0  C 9.12700320512821 0  10.16796875 0.21123798076923  11.1613581730769 0.633713942307693  C 12.1547475961538 1.05618990384615  13.0111177884615 1.62710336538462  13.73046875 2.34645432692308  C 14.4498197115385 3.06580528846154  15.0207331730769 3.92217548076923  15.4432091346154 4.91556490384615  C 15.8656850961538 5.90895432692308  16.0769230769231 6.94991987179487  16.0769230769231 8.03846153846154  C 16.0769230769231 9.71314102564103  15.604967948718 11.2317708333333  14.6610576923077 12.5943509615385  L 18.5775240384615 16.5108173076923  Z " fill-rule="nonzero" fill="#8c8c8c" stroke="none" transform="matrix(1 0 0 1 1039 32 )" />
  </g>
</svg>