<?xml version="1.0" encoding="utf-8"?>
<svg version="1.1" xmlns:xlink="http://www.w3.org/1999/xlink" width="354px" height="80px" xmlns="http://www.w3.org/2000/svg">
  <g transform="matrix(1 0 0 1 -526 -84 )">
    <path d="M 848.243552882075 84.5  C 848.243552882075 84.5  851.7661595827 84.8980346554378  851.7661595827 84.8980346554378  C 851.7661595827 84.8980346554378  879.45035104665 124  879.45035104665 124  C 879.45035104665 124  851.7661595827 163.101965344562  851.7661595827 163.101965344562  C 851.7661595827 163.101965344562  848.243552882075 163.5  848.243552882075 163.5  C 848.243552882075 163.5  526.5 163.5  526.5 163.5  C 526.5 163.5  526.5 84.5  526.5 84.5  C 526.5 84.5  848.243552882075 84.5  848.243552882075 84.5  Z " fill-rule="nonzero" fill="#ffffff" stroke="none" />
    <path d="M 848.243552882075 84.5  C 848.243552882075 84.5  851.7661595827 84.8980346554378  851.7661595827 84.8980346554378  C 851.7661595827 84.8980346554378  879.45035104665 124  879.45035104665 124  C 879.45035104665 124  851.7661595827 163.101965344562  851.7661595827 163.101965344562  C 851.7661595827 163.101965344562  848.243552882075 163.5  848.243552882075 163.5  C 848.243552882075 163.5  526.5 163.5  526.5 163.5  C 526.5 163.5  526.5 84.5  526.5 84.5  C 526.5 84.5  848.243552882075 84.5  848.243552882075 84.5  Z " stroke-width="1" stroke="#8c8c8c" fill="none" />
  </g>
</svg>