<?xml version="1.0" encoding="utf-8"?>
<svg version="1.1" xmlns:xlink="http://www.w3.org/1999/xlink" width="22px" height="22px" xmlns="http://www.w3.org/2000/svg">
  <g transform="matrix(1 0 0 1 -1108 -30 )">
    <path d="M 11 21.0178571428571  C 11.1410256410256 21.0178571428571  11.2115384615385 20.952380952381  11.2115384615385 20.8214285714286  C 11.2115384615385 20.6904761904762  11.1410256410256 20.625  11 20.625  C 10.4799679487179 20.625  10.0326522435897 20.4510788690476  9.65805288461539 20.1032366071429  C 9.28345352564103 19.7553943452381  9.09615384615384 19.3400297619048  9.09615384615384 18.8571428571429  C 9.09615384615384 18.7261904761905  9.02564102564103 18.6607142857143  8.88461538461539 18.6607142857143  C 8.74358974358974 18.6607142857143  8.67307692307692 18.7261904761905  8.67307692307692 18.8571428571429  C 8.67307692307692 19.4546130952381  8.90004006410256 19.964099702381  9.35396634615384 20.3856026785714  C 9.80789262820513 20.8071056547619  10.3565705128205 21.0178571428571  11 21.0178571428571  Z M 5.92307692307692 7.07142857142857  C 5.92307692307692 11.4255952380952  4.75080128205128 14.8303571428571  2.40625 17  L 19.59375 17  C 17.2491987179487 14.8303571428571  16.0769230769231 11.4255952380952  16.0769230769231 7.07142857142857  C 16.0769230769231 6.65401785714286  15.9711538461538 6.22433035714286  15.7596153846154 5.78236607142857  C 15.5480769230769 5.34040178571429  15.2439903846154 4.91889880952381  14.8473557692308 4.51785714285714  C 14.4507211538462 4.11681547619048  13.9152644230769 3.78738839285714  13.2409855769231 3.52957589285714  C 12.5667067307692 3.27176339285714  11.8197115384615 3.14285714285714  11 3.14285714285714  C 10.1802884615385 3.14285714285714  9.43329326923077 3.27176339285714  8.75901442307692 3.52957589285714  C 8.08473557692308 3.78738839285714  7.54927884615385 4.11681547619048  7.15264423076923 4.51785714285714  C 6.75600961538462 4.91889880952381  6.45192307692308 5.34040178571429  6.24038461538462 5.78236607142857  C 6.02884615384615 6.22433035714286  5.92307692307692 6.65401785714286  5.92307692307692 7.07142857142857  Z M 20.796875 16.2053571428571  C 21.1582532051282 16.5818452380952  21.5592948717949 16.9419642857143  22 17.2857142857143  C 22 17.7113095238095  21.8325320512821 18.0796130952381  21.4975961538462 18.390625  C 21.1626602564103 18.7016369047619  20.7660256410256 18.8571428571429  20.3076923076923 18.8571428571429  L 14.3846153846154 18.8571428571429  C 14.3846153846154 19.7247023809524  14.0540865384615 20.4654017857143  13.3930288461538 21.0792410714286  C 12.7319711538462 21.6930803571429  11.9342948717949 22  11 22  C 10.0657051282051 22  9.26802884615384 21.6930803571429  8.60697115384616 21.0792410714286  C 7.94591346153846 20.4654017857143  7.61538461538462 19.7247023809524  7.61538461538462 18.8571428571429  L 1.69230769230769 18.8571428571429  C 1.23397435897436 18.8571428571429  0.837339743589744 18.7016369047619  0.502403846153846 18.390625  C 0.167467948717949 18.0796130952381  0 17.7113095238095  0 17.2857142857143  C 0.440705128205128 16.9419642857143  0.841746794871795 16.5818452380952  1.203125 16.2053571428571  C 1.56450320512821 15.828869047619  1.93910256410256 15.33984375  2.32692307692308 14.73828125  C 2.71474358974359 14.13671875  3.04306891025641 13.4880952380952  3.31189903846154 12.7924107142857  C 3.58072916666667 12.0967261904762  3.80108173076923 11.2537202380952  3.97295673076923 10.2633928571429  C 4.14483173076923 9.27306547619048  4.23076923076923 8.20907738095238  4.23076923076923 7.07142857142857  C 4.23076923076923 5.82738095238095  4.74639423076923 4.67131696428571  5.77764423076923 3.60323660714286  C 6.80889423076923 2.53515625  8.16185897435897 1.88653273809524  9.83653846153846 1.65736607142857  C 9.76602564102564 1.50186011904762  9.73076923076923 1.3422619047619  9.73076923076923 1.17857142857143  C 9.73076923076923 0.851190476190476  9.85416666666667 0.572916666666666  10.1009615384615 0.34375  C 10.3477564102564 0.114583333333334  10.6474358974359 0  11 0  C 11.3525641025641 0  11.6522435897436 0.114583333333334  11.8990384615385 0.34375  C 12.1458333333333 0.572916666666666  12.2692307692308 0.851190476190476  12.2692307692308 1.17857142857143  C 12.2692307692308 1.3422619047619  12.2339743589744 1.50186011904762  12.1634615384615 1.65736607142857  C 13.838141025641 1.88653273809524  15.1911057692308 2.53515625  16.2223557692308 3.60323660714286  C 17.2536057692308 4.67131696428571  17.7692307692308 5.82738095238095  17.7692307692308 7.07142857142857  C 17.7692307692308 8.20907738095238  17.8551682692308 9.27306547619048  18.0270432692308 10.2633928571429  C 18.1989182692308 11.2537202380952  18.4192708333333 12.0967261904762  18.6881009615385 12.7924107142857  C 18.9569310897436 13.4880952380952  19.2852564102564 14.13671875  19.6730769230769 14.73828125  C 20.0608974358974 15.33984375  20.4354967948718 15.828869047619  20.796875 16.2053571428571  Z " fill-rule="nonzero" fill="#000000" stroke="none" transform="matrix(1 0 0 1 1108 30 )" />
  </g>
</svg>