<?xml version="1.0" encoding="utf-8"?>
<svg version="1.1" xmlns:xlink="http://www.w3.org/1999/xlink" width="355px" height="80px" xmlns="http://www.w3.org/2000/svg">
  <g transform="matrix(1 0 0 1 -526 -84 )">
    <path d="M 849.244872542188 84.5  C 849.244872542188 84.5  852.76628373779 84.8967787262651  852.76628373779 84.8967787262651  C 852.76628373779 84.8967787262651  880.450473158084 124  880.450473158084 124  C 880.450473158084 124  852.76628373779 163.103221273735  852.76628373779 163.103221273735  C 852.76628373779 163.103221273735  849.244872542188 163.5  849.244872542188 163.5  C 849.244872542188 163.5  526.5 163.5  526.5 163.5  C 526.5 163.5  526.5 84.5  526.5 84.5  C 526.5 84.5  849.244872542188 84.5  849.244872542188 84.5  Z " fill-rule="nonzero" fill="#169bd5" stroke="none" />
    <path d="M 849.244872542188 84.5  C 849.244872542188 84.5  852.76628373779 84.8967787262651  852.76628373779 84.8967787262651  C 852.76628373779 84.8967787262651  880.450473158084 124  880.450473158084 124  C 880.450473158084 124  852.76628373779 163.103221273735  852.76628373779 163.103221273735  C 852.76628373779 163.103221273735  849.244872542188 163.5  849.244872542188 163.5  C 849.244872542188 163.5  526.5 163.5  526.5 163.5  C 526.5 163.5  526.5 84.5  526.5 84.5  C 526.5 84.5  849.244872542188 84.5  849.244872542188 84.5  Z " stroke-width="1" stroke="#169bd5" fill="none" />
  </g>
</svg>