<?xml version="1.0" encoding="utf-8"?>
<svg version="1.1" xmlns:xlink="http://www.w3.org/1999/xlink" width="14px" height="7px" xmlns="http://www.w3.org/2000/svg">
  <g transform="matrix(1 0 0 1 -593 -391 )">
    <path d="M 13.8597194388778 0.651088201603671  C 13.9532398129593 0.723431335115181  14 0.806625938653425  14 0.900672012218402  C 14 0.99471808578338  13.9532398129593 1.07791268932162  13.8597194388778 1.15025582283315  L 7.32264529058116 6.20704085528829  C 7.22912491649967 6.27938398879982  7.12157648630594 6.31555555555557  7 6.31555555555557  C 6.87842351369406 6.31555555555557  6.77087508350033 6.27938398879982  6.67735470941884 6.20704085528829  L 0.140280561122239 1.15025582283315  C 0.0467601870407464 1.07791268932162  0 0.99471808578338  0 0.900672012218402  C 0 0.806625938653425  0.0467601870407464 0.723431335115181  0.140280561122239 0.651088201603671  L 0.841683366733463 0.108514700267273  C 0.935203740814956 0.0361715667557632  1.04275217100869 0  1.16432865731463 0  C 1.28590514362057 0  1.3934535738143 0.0361715667557632  1.48697394789579 0.108514700267273  L 7 4.37314242077129  L 12.5130260521042 0.108514700267273  C 12.6065464261857 0.0361715667557632  12.7140948563794 0  12.8356713426854 0  C 12.9572478289913 0  13.064796259185 0.0361715667557632  13.1583166332665 0.108514700267273  L 13.8597194388778 0.651088201603671  Z " fill-rule="nonzero" fill="#dcdfe6" stroke="none" transform="matrix(1 0 0 1 593 391 )" />
  </g>
</svg>