<?xml version="1.0" encoding="utf-8"?>
<svg version="1.1" xmlns:xlink="http://www.w3.org/1999/xlink" width="14px" height="14px" xmlns="http://www.w3.org/2000/svg">
  <g transform="matrix(1 0 0 1 -597 -334 )">
    <path d="M 604 334  C 607.92 334  611 337.08  611 341  C 611 344.92  607.92 348  604 348  C 600.08 348  597 344.92  597 341  C 597 337.08  600.08 334  604 334  Z " fill-rule="nonzero" fill="#ffffff" stroke="none" />
    <path d="M 604 334.5  C 607.64 334.5  610.5 337.36  610.5 341  C 610.5 344.64  607.64 347.5  604 347.5  C 600.36 347.5  597.5 344.64  597.5 341  C 597.5 337.36  600.36 334.5  604 334.5  Z " stroke-width="1" stroke="#dcdfe6" fill="none" />
  </g>
</svg>