<?xml version="1.0" encoding="utf-8"?>
<svg version="1.1" xmlns:xlink="http://www.w3.org/1999/xlink" width="20px" height="20px" xmlns="http://www.w3.org/2000/svg">
  <g transform="matrix(1 0 0 1 -667 -241 )">
    <path d="M 677 242  C 682.04 242  686 245.96  686 251  C 686 256.04  682.04 260  677 260  C 671.96 260  668 256.04  668 251  C 668 245.96  671.96 242  677 242  Z " fill-rule="nonzero" fill="#ffffff" stroke="none" />
    <path d="M 677 242  C 682.04 242  686 245.96  686 251  C 686 256.04  682.04 260  677 260  C 671.96 260  668 256.04  668 251  C 668 245.96  671.96 242  677 242  Z " stroke-width="2" stroke="#409eff" fill="none" />
  </g>
</svg>