<?xml version="1.0" encoding="utf-8"?>
<svg version="1.1" xmlns:xlink="http://www.w3.org/1999/xlink" width="17px" height="20px" xmlns="http://www.w3.org/2000/svg">
  <g transform="matrix(1 0 0 1 -1159 -31 )">
    <path d="M 14.1666666666667 5.71428571428571  C 14.1666666666667 6.80803571428571  13.8752170138889 7.81994047619047  13.2923177083333 8.75  C 13.6391059027778 8.85416666666666  13.9692925347222 8.99553571428571  14.2828776041667 9.17410714285714  C 14.5964626736111 9.35267857142857  14.9248046875 9.62425595238095  15.2679036458333 9.98883928571429  C 15.6110026041667 10.3534226190476  15.904296875 10.7831101190476  16.1477864583333 11.2779017857143  C 16.3912760416667 11.772693452381  16.5941840277778 12.4125744047619  16.7565104166667 13.1975446428571  C 16.9188368055556 13.9825148809524  17 14.8623511904762  17 15.8370535714286  C 17 16.9828869047619  16.6310763888889 17.9631696428571  15.8932291666667 18.7779017857143  C 15.1553819444444 19.5926339285714  14.2662760416667 20  13.2259114583333 20  L 3.77408854166667 20  C 2.73372395833333 20  1.84461805555556 19.5926339285714  1.10677083333333 18.7779017857143  C 0.368923611111111 17.9631696428571  0 16.9828869047619  0 15.8370535714286  C 0 14.8623511904762  0.0811631944444444 13.9825148809524  0.243489583333333 13.1975446428571  C 0.405815972222222 12.4125744047619  0.608723958333333 11.772693452381  0.852213541666667 11.2779017857143  C 1.095703125 10.7831101190476  1.38899739583333 10.3534226190476  1.73209635416667 9.98883928571429  C 2.0751953125 9.62425595238095  2.40353732638889 9.35267857142857  2.71712239583333 9.17410714285714  C 3.03070746527778 8.99553571428571  3.36089409722222 8.85416666666666  3.70768229166667 8.75  C 3.12478298611111 7.81994047619047  2.83333333333333 6.80803571428571  2.83333333333333 5.71428571428571  C 2.83333333333333 4.94047619047619  2.98274739583333 4.20200892857143  3.28157552083333 3.49888392857143  C 3.58040364583333 2.79575892857143  3.984375 2.1875  4.49348958333333 1.67410714285714  C 5.00260416666667 1.16071428571429  5.60579427083333 0.753348214285714  6.30305989583333 0.452008928571428  C 7.00032552083333 0.150669642857142  7.73263888888889 0  8.5 0  C 9.26736111111111 0  9.99967447916667 0.150669642857142  10.6969401041667 0.452008928571428  C 11.3942057291667 0.753348214285714  11.9973958333333 1.16071428571429  12.5065104166667 1.67410714285714  C 13.015625 2.1875  13.4195963541667 2.79575892857143  13.7184244791667 3.49888392857143  C 14.0172526041667 4.20200892857143  14.1666666666667 4.94047619047619  14.1666666666667 5.71428571428571  Z M 11.5048828125 2.68415178571429  C 10.6748046875 1.84709821428571  9.67317708333333 1.42857142857143  8.5 1.42857142857143  C 7.32682291666667 1.42857142857143  6.3251953125 1.84709821428571  5.4951171875 2.68415178571429  C 4.6650390625 3.52120535714286  4.25 4.53125  4.25 5.71428571428571  C 4.25 6.89732142857143  4.6650390625 7.90736607142857  5.4951171875 8.74441964285714  C 6.3251953125 9.58147321428571  7.32682291666667 10  8.5 10  C 9.67317708333333 10  10.6748046875 9.58147321428571  11.5048828125 8.74441964285714  C 12.3349609375 7.90736607142857  12.75 6.89732142857143  12.75 5.71428571428571  C 12.75 4.53125  12.3349609375 3.52120535714286  11.5048828125 2.68415178571429  Z M 3.77408854166667 18.5714285714286  L 13.2259114583333 18.5714285714286  C 13.8752170138889 18.5714285714286  14.4304470486111 18.305431547619  14.8916015625 17.7734375  C 15.3527560763889 17.241443452381  15.5833333333333 16.5959821428571  15.5833333333333 15.8370535714286  C 15.5833333333333 14.0587797619048  15.2937282986111 12.65625  14.7145182291667 11.6294642857143  C 14.1353081597222 10.6026785714286  13.3033854166667 10.063244047619  12.21875 10.0111607142857  C 11.1488715277778 10.9561011904762  9.90928819444444 11.4285714285714  8.5 11.4285714285714  C 7.09071180555556 11.4285714285714  5.85112847222222 10.9561011904762  4.78125 10.0111607142857  C 3.69661458333333 10.063244047619  2.86469184027778 10.6026785714286  2.28548177083333 11.6294642857143  C 1.70627170138889 12.65625  1.41666666666667 14.0587797619048  1.41666666666667 15.8370535714286  C 1.41666666666667 16.5959821428571  1.64724392361111 17.241443452381  2.1083984375 17.7734375  C 2.56955295138889 18.305431547619  3.12478298611111 18.5714285714286  3.77408854166667 18.5714285714286  Z " fill-rule="nonzero" fill="#333333" stroke="none" transform="matrix(1 0 0 1 1159 31 )" />
  </g>
</svg>