<?xml version="1.0" encoding="utf-8"?>
<svg version="1.1" xmlns:xlink="http://www.w3.org/1999/xlink" width="12px" height="12px" xmlns="http://www.w3.org/2000/svg">
  <g transform="matrix(1 0 0 1 -608 -190 )">
    <path d="M 11.7171717171717 8.96969696969697  C 11.9057239057239 9.15824915824916  12 9.38720538720539  12 9.65656565656566  C 12 9.92592592592593  11.9057239057239 10.1548821548822  11.7171717171717 10.3434343434343  L 10.3434343434343 11.7171717171717  C 10.1548821548822 11.9057239057239  9.92592592592593 12  9.65656565656566 12  C 9.38720538720539 12  9.15824915824916 11.9057239057239  8.96969696969697 11.7171717171717  L 6 8.74747474747475  L 3.03030303030303 11.7171717171717  C 2.84175084175084 11.9057239057239  2.61279461279461 12  2.34343434343434 12  C 2.07407407407407 12  1.84511784511785 11.9057239057239  1.65656565656566 11.7171717171717  L 0.282828282828283 10.3434343434343  C 0.0942760942760944 10.1548821548822  0 9.92592592592593  0 9.65656565656566  C 0 9.38720538720539  0.0942760942760944 9.15824915824916  0.282828282828283 8.96969696969697  L 3.25252525252525 6  L 0.282828282828283 3.03030303030303  C 0.0942760942760944 2.84175084175084  0 2.61279461279461  0 2.34343434343434  C 0 2.07407407407407  0.0942760942760944 1.84511784511784  0.282828282828283 1.65656565656566  L 1.65656565656566 0.282828282828283  C 1.84511784511785 0.0942760942760938  2.07407407407407 0  2.34343434343434 0  C 2.61279461279461 0  2.84175084175084 0.0942760942760938  3.03030303030303 0.282828282828283  L 6 3.25252525252525  L 8.96969696969697 0.282828282828283  C 9.15824915824916 0.0942760942760938  9.38720538720539 0  9.65656565656566 0  C 9.92592592592593 0  10.1548821548822 0.0942760942760938  10.3434343434343 0.282828282828283  L 11.7171717171717 1.65656565656566  C 11.9057239057239 1.84511784511784  12 2.07407407407407  12 2.34343434343434  C 12 2.61279461279461  11.9057239057239 2.84175084175084  11.7171717171717 3.03030303030303  L 8.74747474747475 6  L 11.7171717171717 8.96969696969697  Z " fill-rule="nonzero" fill="#8c8c8c" stroke="none" transform="matrix(1 0 0 1 608 190 )" />
  </g>
</svg>