<?xml version="1.0" encoding="utf-8"?>
<svg version="1.1" xmlns:xlink="http://www.w3.org/1999/xlink" width="62px" height="32px" xmlns="http://www.w3.org/2000/svg">
  <g transform="matrix(1 0 0 1 -883 -306 )">
    <path d="M 883.5 310  A 3.5 3.5 0 0 1 887 306.5 L 941 306.5  A 3.5 3.5 0 0 1 944.5 310 L 944.5 334  A 3.5 3.5 0 0 1 941 337.5 L 887 337.5  A 3.5 3.5 0 0 1 883.5 334 L 883.5 310  Z " fill-rule="nonzero" fill="#0099ff" stroke="none" fill-opacity="0.0980392156862745" />
    <path d="M 883.5 310  A 3.5 3.5 0 0 1 887 306.5 L 941 306.5  A 3.5 3.5 0 0 1 944.5 310 L 944.5 334  A 3.5 3.5 0 0 1 941 337.5 L 887 337.5  A 3.5 3.5 0 0 1 883.5 334 L 883.5 310  Z " stroke-width="1" stroke="#a7d2f9" fill="none" />
  </g>
</svg>