<?xml version="1.0" encoding="utf-8"?>
<svg version="1.1" xmlns:xlink="http://www.w3.org/1999/xlink" width="76px" height="32px" xmlns="http://www.w3.org/2000/svg">
  <g transform="matrix(1 0 0 1 -876 -264 )">
    <path d="M 877 268  A 3 3 0 0 1 880 265 L 948 265  A 3 3 0 0 1 951 268 L 951 292  A 3 3 0 0 1 948 295 L 880 295  A 3 3 0 0 1 877 292 L 877 268  Z " fill-rule="nonzero" fill="#67c23a" stroke="none" fill-opacity="0.0980392156862745" />
    <path d="M 876.5 268  A 3.5 3.5 0 0 1 880 264.5 L 948 264.5  A 3.5 3.5 0 0 1 951.5 268 L 951.5 292  A 3.5 3.5 0 0 1 948 295.5 L 880 295.5  A 3.5 3.5 0 0 1 876.5 292 L 876.5 268  Z " stroke-width="1" stroke="#67c23a" fill="none" stroke-opacity="0.2" />
  </g>
</svg>