<?xml version="1.0" encoding="utf-8"?>
<svg version="1.1" xmlns:xlink="http://www.w3.org/1999/xlink" width="76px" height="32px" xmlns="http://www.w3.org/2000/svg">
  <g transform="matrix(1 0 0 1 -876 -409 )">
    <path d="M 877 413  A 3 3 0 0 1 880 410 L 948 410  A 3 3 0 0 1 951 413 L 951 437  A 3 3 0 0 1 948 440 L 880 440  A 3 3 0 0 1 877 437 L 877 413  Z " fill-rule="nonzero" fill="#f56c6c" stroke="none" fill-opacity="0.0980392156862745" />
    <path d="M 876.5 413  A 3.5 3.5 0 0 1 880 409.5 L 948 409.5  A 3.5 3.5 0 0 1 951.5 413 L 951.5 437  A 3.5 3.5 0 0 1 948 440.5 L 880 440.5  A 3.5 3.5 0 0 1 876.5 437 L 876.5 413  Z " stroke-width="1" stroke="#f56c6c" fill="none" stroke-opacity="0.2" />
  </g>
</svg>